<svg width="33" height="39" viewBox="0 0 33 39" fill="none" xmlns="http://www.w3.org/2000/svg">
<path fill-rule="evenodd" clip-rule="evenodd" d="M32.0532 16.0497V35.856C32.0532 37.1202 30.9996 38.2791 29.7354 38.2791H2.97583C1.60625 38.2791 0.552734 37.1202 0.552734 35.856V16.0497C0.552734 14.7854 1.60625 13.6266 2.97583 13.6266H4.55612V6.04118C4.55612 2.6699 7.7167 0.0361328 11.5094 0.0361328H21.5179C25.3106 0.0361328 28.3658 2.6699 28.3658 6.04118V13.6266H29.7354C30.9996 13.6266 32.0532 14.7854 32.0532 16.0497ZM8.6649 13.6266H24.3624V8.35895C24.3624 5.09302 23.0982 4.14485 19.5162 4.14485H13.4058C9.61307 4.14485 8.6649 5.09302 8.6649 8.35895V13.6266ZM18.7787 28.7974L18.1466 24.0565C18.1466 23.003 17.3038 22.1602 16.3556 22.1602C15.3021 22.1602 14.4593 23.003 14.4593 24.0565L13.8272 28.7974H13.9325C13.8623 28.8676 13.8272 28.973 13.8272 29.1134C13.8272 30.483 14.986 31.5365 16.3556 31.5365C17.7252 31.5365 18.7787 30.483 18.7787 29.1134C18.7787 28.973 18.7787 28.8676 18.7787 28.7974Z" fill="white"/>
</svg>
