<svg width="389" height="550" viewBox="0 0 389 550" fill="none" xmlns="http://www.w3.org/2000/svg">
<rect width="389" height="550" fill="#EBEBEB"/>
<path d="M139.296 270.432C139.392 270.432 139.472 270.437 139.536 270.448C139.6 270.453 139.656 270.469 139.704 270.496C139.757 270.517 139.808 270.552 139.856 270.6C139.904 270.643 139.957 270.701 140.016 270.776L146.088 278.512C146.067 278.325 146.051 278.144 146.04 277.968C146.035 277.787 146.032 277.619 146.032 277.464V270.432H147.928V282H146.816C146.645 282 146.504 281.973 146.392 281.92C146.28 281.867 146.171 281.771 146.064 281.632L140.016 273.928C140.032 274.099 140.043 274.269 140.048 274.44C140.059 274.605 140.064 274.757 140.064 274.896V282H138.168V270.432H139.296Z" fill="#B4BBC3"/>
<path d="M153.654 273.664C154.267 273.664 154.822 273.763 155.318 273.96C155.819 274.157 156.246 274.437 156.598 274.8C156.95 275.163 157.222 275.605 157.414 276.128C157.606 276.651 157.702 277.235 157.702 277.88C157.702 278.531 157.606 279.117 157.414 279.64C157.222 280.163 156.95 280.608 156.598 280.976C156.246 281.344 155.819 281.627 155.318 281.824C154.822 282.021 154.267 282.12 153.654 282.12C153.04 282.12 152.483 282.021 151.982 281.824C151.48 281.627 151.051 281.344 150.694 280.976C150.342 280.608 150.067 280.163 149.87 279.64C149.678 279.117 149.582 278.531 149.582 277.88C149.582 277.235 149.678 276.651 149.87 276.128C150.067 275.605 150.342 275.163 150.694 274.8C151.051 274.437 151.48 274.157 151.982 273.96C152.483 273.763 153.04 273.664 153.654 273.664ZM153.654 280.6C154.336 280.6 154.84 280.371 155.166 279.912C155.496 279.453 155.662 278.781 155.662 277.896C155.662 277.011 155.496 276.336 155.166 275.872C154.84 275.408 154.336 275.176 153.654 275.176C152.96 275.176 152.448 275.411 152.118 275.88C151.787 276.344 151.622 277.016 151.622 277.896C151.622 278.776 151.787 279.448 152.118 279.912C152.448 280.371 152.96 280.6 153.654 280.6Z" fill="#B4BBC3"/>
<path d="M165.033 282.128C164.324 282.128 163.777 281.928 163.393 281.528C163.009 281.123 162.817 280.565 162.817 279.856V275.272H161.985C161.879 275.272 161.785 275.237 161.705 275.168C161.631 275.099 161.593 274.995 161.593 274.856V274.072L162.913 273.856L163.329 271.616C163.351 271.509 163.399 271.427 163.473 271.368C163.553 271.309 163.652 271.28 163.769 271.28H164.793V273.864H166.953V275.272H164.793V279.72C164.793 279.976 164.857 280.176 164.985 280.32C165.113 280.464 165.284 280.536 165.497 280.536C165.62 280.536 165.721 280.523 165.801 280.496C165.887 280.464 165.959 280.432 166.017 280.4C166.081 280.368 166.137 280.339 166.185 280.312C166.233 280.28 166.281 280.264 166.329 280.264C166.388 280.264 166.436 280.28 166.473 280.312C166.511 280.339 166.551 280.381 166.593 280.44L167.185 281.4C166.897 281.64 166.567 281.821 166.193 281.944C165.82 282.067 165.433 282.128 165.033 282.128Z" fill="#B4BBC3"/>
<path d="M174.957 282H174.069C173.882 282 173.735 281.973 173.629 281.92C173.522 281.861 173.442 281.747 173.389 281.576L173.213 280.992C173.005 281.179 172.799 281.344 172.597 281.488C172.399 281.627 172.194 281.744 171.981 281.84C171.767 281.936 171.541 282.008 171.301 282.056C171.061 282.104 170.794 282.128 170.501 282.128C170.154 282.128 169.834 282.083 169.541 281.992C169.247 281.896 168.994 281.755 168.781 281.568C168.573 281.381 168.41 281.149 168.293 280.872C168.175 280.595 168.117 280.272 168.117 279.904C168.117 279.595 168.197 279.291 168.357 278.992C168.522 278.688 168.794 278.416 169.173 278.176C169.551 277.931 170.055 277.728 170.685 277.568C171.314 277.408 172.095 277.317 173.029 277.296V276.816C173.029 276.267 172.911 275.861 172.677 275.6C172.447 275.333 172.111 275.2 171.669 275.2C171.349 275.2 171.082 275.237 170.869 275.312C170.655 275.387 170.469 275.472 170.309 275.568C170.154 275.659 170.01 275.741 169.877 275.816C169.743 275.891 169.597 275.928 169.437 275.928C169.303 275.928 169.189 275.893 169.093 275.824C168.997 275.755 168.919 275.669 168.861 275.568L168.501 274.936C169.445 274.072 170.583 273.64 171.917 273.64C172.397 273.64 172.823 273.72 173.197 273.88C173.575 274.035 173.895 274.253 174.157 274.536C174.418 274.813 174.615 275.147 174.749 275.536C174.887 275.925 174.957 276.352 174.957 276.816V282ZM171.117 280.768C171.319 280.768 171.506 280.749 171.677 280.712C171.847 280.675 172.007 280.619 172.157 280.544C172.311 280.469 172.458 280.379 172.597 280.272C172.741 280.16 172.885 280.029 173.029 279.88V278.496C172.453 278.523 171.97 278.573 171.581 278.648C171.197 278.717 170.887 278.808 170.653 278.92C170.418 279.032 170.25 279.163 170.149 279.312C170.053 279.461 170.005 279.624 170.005 279.8C170.005 280.147 170.106 280.395 170.309 280.544C170.517 280.693 170.786 280.768 171.117 280.768Z" fill="#B4BBC3"/>
<path d="M176.9 282V273.792H178.06C178.262 273.792 178.404 273.829 178.484 273.904C178.564 273.979 178.617 274.107 178.644 274.288L178.764 275.28C179.057 274.773 179.401 274.373 179.796 274.08C180.19 273.787 180.633 273.64 181.124 273.64C181.529 273.64 181.865 273.733 182.132 273.92L181.876 275.4C181.86 275.496 181.825 275.565 181.772 275.608C181.718 275.645 181.646 275.664 181.556 275.664C181.476 275.664 181.366 275.645 181.228 275.608C181.089 275.571 180.905 275.552 180.676 275.552C180.265 275.552 179.913 275.667 179.62 275.896C179.326 276.12 179.078 276.451 178.876 276.888V282H176.9Z" fill="#B4BBC3"/>
<path d="M186.271 273.648C186.623 273.648 186.954 273.685 187.263 273.76C187.572 273.829 187.855 273.933 188.111 274.072H190.471V274.808C190.471 274.931 190.439 275.027 190.375 275.096C190.311 275.165 190.202 275.213 190.047 275.24L189.311 275.376C189.364 275.515 189.404 275.661 189.431 275.816C189.463 275.971 189.479 276.133 189.479 276.304C189.479 276.709 189.396 277.077 189.231 277.408C189.071 277.733 188.847 278.011 188.559 278.24C188.276 278.469 187.938 278.648 187.543 278.776C187.154 278.899 186.73 278.96 186.271 278.96C185.962 278.96 185.66 278.931 185.367 278.872C185.111 279.027 184.983 279.2 184.983 279.392C184.983 279.557 185.058 279.68 185.207 279.76C185.362 279.835 185.562 279.888 185.807 279.92C186.058 279.952 186.34 279.973 186.655 279.984C186.97 279.989 187.292 280.005 187.623 280.032C187.954 280.059 188.276 280.107 188.591 280.176C188.906 280.24 189.186 280.344 189.431 280.488C189.682 280.632 189.882 280.829 190.031 281.08C190.186 281.325 190.263 281.643 190.263 282.032C190.263 282.395 190.172 282.747 189.991 283.088C189.815 283.429 189.556 283.733 189.215 284C188.879 284.267 188.466 284.48 187.975 284.64C187.484 284.805 186.924 284.888 186.295 284.888C185.671 284.888 185.13 284.827 184.671 284.704C184.212 284.587 183.831 284.427 183.527 284.224C183.228 284.027 183.004 283.797 182.855 283.536C182.706 283.275 182.631 283.003 182.631 282.72C182.631 282.336 182.748 282.013 182.983 281.752C183.218 281.491 183.543 281.283 183.959 281.128C183.756 281.016 183.594 280.867 183.471 280.68C183.348 280.493 183.287 280.251 183.287 279.952C183.287 279.829 183.308 279.704 183.351 279.576C183.394 279.443 183.458 279.312 183.543 279.184C183.634 279.056 183.746 278.936 183.879 278.824C184.012 278.707 184.17 278.603 184.351 278.512C183.935 278.288 183.607 277.989 183.367 277.616C183.132 277.243 183.015 276.805 183.015 276.304C183.015 275.899 183.095 275.533 183.255 275.208C183.42 274.877 183.647 274.597 183.935 274.368C184.228 274.133 184.572 273.955 184.967 273.832C185.367 273.709 185.802 273.648 186.271 273.648ZM188.439 282.368C188.439 282.208 188.391 282.077 188.295 281.976C188.199 281.875 188.068 281.797 187.903 281.744C187.738 281.685 187.543 281.643 187.319 281.616C187.1 281.589 186.866 281.571 186.615 281.56C186.37 281.544 186.114 281.531 185.847 281.52C185.586 281.504 185.332 281.48 185.087 281.448C184.863 281.571 184.682 281.717 184.543 281.888C184.41 282.053 184.343 282.245 184.343 282.464C184.343 282.608 184.378 282.741 184.447 282.864C184.522 282.992 184.636 283.101 184.791 283.192C184.951 283.283 185.156 283.352 185.407 283.4C185.658 283.453 185.964 283.48 186.327 283.48C186.695 283.48 187.012 283.451 187.279 283.392C187.546 283.339 187.764 283.261 187.935 283.16C188.111 283.064 188.239 282.947 188.319 282.808C188.399 282.675 188.439 282.528 188.439 282.368ZM186.271 277.696C186.516 277.696 186.73 277.664 186.911 277.6C187.092 277.531 187.242 277.437 187.359 277.32C187.482 277.203 187.572 277.061 187.631 276.896C187.695 276.731 187.727 276.549 187.727 276.352C187.727 275.947 187.604 275.627 187.359 275.392C187.119 275.152 186.756 275.032 186.271 275.032C185.786 275.032 185.42 275.152 185.175 275.392C184.935 275.627 184.815 275.947 184.815 276.352C184.815 276.544 184.844 276.723 184.903 276.888C184.967 277.053 185.058 277.197 185.175 277.32C185.298 277.437 185.45 277.531 185.631 277.6C185.818 277.664 186.031 277.696 186.271 277.696Z" fill="#B4BBC3"/>
<path d="M195.104 273.664C195.622 273.664 196.096 273.747 196.528 273.912C196.966 274.077 197.342 274.32 197.656 274.64C197.971 274.955 198.216 275.344 198.392 275.808C198.568 276.267 198.656 276.792 198.656 277.384C198.656 277.533 198.648 277.659 198.632 277.76C198.622 277.856 198.598 277.933 198.56 277.992C198.528 278.045 198.483 278.085 198.424 278.112C198.366 278.133 198.291 278.144 198.2 278.144H193.128C193.187 278.987 193.414 279.605 193.808 280C194.203 280.395 194.726 280.592 195.376 280.592C195.696 280.592 195.971 280.555 196.2 280.48C196.435 280.405 196.638 280.323 196.808 280.232C196.984 280.141 197.136 280.059 197.264 279.984C197.398 279.909 197.526 279.872 197.648 279.872C197.728 279.872 197.798 279.888 197.856 279.92C197.915 279.952 197.966 279.997 198.008 280.056L198.584 280.776C198.366 281.032 198.12 281.248 197.848 281.424C197.576 281.595 197.291 281.733 196.992 281.84C196.699 281.941 196.398 282.013 196.088 282.056C195.784 282.099 195.488 282.12 195.2 282.12C194.63 282.12 194.099 282.027 193.608 281.84C193.118 281.648 192.691 281.368 192.328 281C191.966 280.627 191.68 280.168 191.472 279.624C191.264 279.075 191.16 278.44 191.16 277.72C191.16 277.16 191.251 276.635 191.432 276.144C191.614 275.648 191.872 275.219 192.208 274.856C192.55 274.488 192.963 274.197 193.448 273.984C193.939 273.771 194.491 273.664 195.104 273.664ZM195.144 275.08C194.568 275.08 194.118 275.243 193.792 275.568C193.467 275.893 193.259 276.355 193.168 276.952H196.88C196.88 276.696 196.846 276.456 196.776 276.232C196.707 276.003 196.6 275.803 196.456 275.632C196.312 275.461 196.131 275.328 195.912 275.232C195.694 275.131 195.438 275.08 195.144 275.08Z" fill="#B4BBC3"/>
<path d="M202.955 282.128C202.246 282.128 201.699 281.928 201.315 281.528C200.931 281.123 200.739 280.565 200.739 279.856V275.272H199.907C199.8 275.272 199.707 275.237 199.627 275.168C199.552 275.099 199.515 274.995 199.515 274.856V274.072L200.835 273.856L201.251 271.616C201.272 271.509 201.32 271.427 201.395 271.368C201.475 271.309 201.574 271.28 201.691 271.28H202.715V273.864H204.875V275.272H202.715V279.72C202.715 279.976 202.779 280.176 202.907 280.32C203.035 280.464 203.206 280.536 203.419 280.536C203.542 280.536 203.643 280.523 203.723 280.496C203.808 280.464 203.88 280.432 203.939 280.4C204.003 280.368 204.059 280.339 204.107 280.312C204.155 280.28 204.203 280.264 204.251 280.264C204.31 280.264 204.358 280.28 204.395 280.312C204.432 280.339 204.472 280.381 204.515 280.44L205.107 281.4C204.819 281.64 204.488 281.821 204.115 281.944C203.742 282.067 203.355 282.128 202.955 282.128Z" fill="#B4BBC3"/>
<path d="M211.644 273.792V282H209.668V273.792H211.644ZM211.94 271.4C211.94 271.571 211.906 271.731 211.836 271.88C211.767 272.029 211.674 272.16 211.556 272.272C211.444 272.384 211.311 272.475 211.156 272.544C211.002 272.608 210.836 272.64 210.66 272.64C210.49 272.64 210.327 272.608 210.172 272.544C210.023 272.475 209.892 272.384 209.78 272.272C209.668 272.16 209.578 272.029 209.508 271.88C209.444 271.731 209.412 271.571 209.412 271.4C209.412 271.224 209.444 271.059 209.508 270.904C209.578 270.749 209.668 270.616 209.78 270.504C209.892 270.392 210.023 270.304 210.172 270.24C210.327 270.171 210.49 270.136 210.66 270.136C210.836 270.136 211.002 270.171 211.156 270.24C211.311 270.304 211.444 270.392 211.556 270.504C211.674 270.616 211.767 270.749 211.836 270.904C211.906 271.059 211.94 271.224 211.94 271.4Z" fill="#B4BBC3"/>
<path d="M213.884 282V273.792H215.092C215.348 273.792 215.516 273.912 215.596 274.152L215.724 274.76C215.868 274.6 216.017 274.453 216.172 274.32C216.332 274.187 216.5 274.072 216.676 273.976C216.857 273.88 217.049 273.805 217.252 273.752C217.46 273.693 217.687 273.664 217.932 273.664C218.449 273.664 218.873 273.805 219.204 274.088C219.54 274.365 219.791 274.736 219.956 275.2C220.084 274.928 220.244 274.696 220.436 274.504C220.628 274.307 220.839 274.147 221.068 274.024C221.297 273.901 221.54 273.811 221.796 273.752C222.057 273.693 222.319 273.664 222.58 273.664C223.033 273.664 223.436 273.733 223.788 273.872C224.14 274.011 224.436 274.213 224.676 274.48C224.916 274.747 225.097 275.072 225.22 275.456C225.348 275.84 225.412 276.28 225.412 276.776V282H223.436V276.776C223.436 276.253 223.321 275.861 223.092 275.6C222.863 275.333 222.527 275.2 222.084 275.2C221.881 275.2 221.692 275.235 221.516 275.304C221.345 275.373 221.193 275.475 221.06 275.608C220.932 275.736 220.831 275.899 220.756 276.096C220.681 276.293 220.644 276.52 220.644 276.776V282H218.66V276.776C218.66 276.227 218.548 275.827 218.324 275.576C218.105 275.325 217.78 275.2 217.348 275.2C217.065 275.2 216.799 275.272 216.548 275.416C216.303 275.555 216.073 275.747 215.86 275.992V282H213.884Z" fill="#B4BBC3"/>
<path d="M233.785 282H232.897C232.71 282 232.564 281.973 232.457 281.92C232.35 281.861 232.27 281.747 232.217 281.576L232.041 280.992C231.833 281.179 231.628 281.344 231.425 281.488C231.228 281.627 231.022 281.744 230.809 281.84C230.596 281.936 230.369 282.008 230.129 282.056C229.889 282.104 229.622 282.128 229.329 282.128C228.982 282.128 228.662 282.083 228.369 281.992C228.076 281.896 227.822 281.755 227.609 281.568C227.401 281.381 227.238 281.149 227.121 280.872C227.004 280.595 226.945 280.272 226.945 279.904C226.945 279.595 227.025 279.291 227.185 278.992C227.35 278.688 227.622 278.416 228.001 278.176C228.38 277.931 228.884 277.728 229.513 277.568C230.142 277.408 230.924 277.317 231.857 277.296V276.816C231.857 276.267 231.74 275.861 231.505 275.6C231.276 275.333 230.94 275.2 230.497 275.2C230.177 275.2 229.91 275.237 229.697 275.312C229.484 275.387 229.297 275.472 229.137 275.568C228.982 275.659 228.838 275.741 228.705 275.816C228.572 275.891 228.425 275.928 228.265 275.928C228.132 275.928 228.017 275.893 227.921 275.824C227.825 275.755 227.748 275.669 227.689 275.568L227.329 274.936C228.273 274.072 229.412 273.64 230.745 273.64C231.225 273.64 231.652 273.72 232.025 273.88C232.404 274.035 232.724 274.253 232.985 274.536C233.246 274.813 233.444 275.147 233.577 275.536C233.716 275.925 233.785 276.352 233.785 276.816V282ZM229.945 280.768C230.148 280.768 230.334 280.749 230.505 280.712C230.676 280.675 230.836 280.619 230.985 280.544C231.14 280.469 231.286 280.379 231.425 280.272C231.569 280.16 231.713 280.029 231.857 279.88V278.496C231.281 278.523 230.798 278.573 230.409 278.648C230.025 278.717 229.716 278.808 229.481 278.92C229.246 279.032 229.078 279.163 228.977 279.312C228.881 279.461 228.833 279.624 228.833 279.8C228.833 280.147 228.934 280.395 229.137 280.544C229.345 280.693 229.614 280.768 229.945 280.768Z" fill="#B4BBC3"/>
<path d="M238.568 273.648C238.92 273.648 239.251 273.685 239.56 273.76C239.869 273.829 240.152 273.933 240.408 274.072H242.768V274.808C242.768 274.931 242.736 275.027 242.672 275.096C242.608 275.165 242.499 275.213 242.344 275.24L241.608 275.376C241.661 275.515 241.701 275.661 241.728 275.816C241.76 275.971 241.776 276.133 241.776 276.304C241.776 276.709 241.693 277.077 241.528 277.408C241.368 277.733 241.144 278.011 240.856 278.24C240.573 278.469 240.235 278.648 239.84 278.776C239.451 278.899 239.027 278.96 238.568 278.96C238.259 278.96 237.957 278.931 237.664 278.872C237.408 279.027 237.28 279.2 237.28 279.392C237.28 279.557 237.355 279.68 237.504 279.76C237.659 279.835 237.859 279.888 238.104 279.92C238.355 279.952 238.637 279.973 238.952 279.984C239.267 279.989 239.589 280.005 239.92 280.032C240.251 280.059 240.573 280.107 240.888 280.176C241.203 280.24 241.483 280.344 241.728 280.488C241.979 280.632 242.179 280.829 242.328 281.08C242.483 281.325 242.56 281.643 242.56 282.032C242.56 282.395 242.469 282.747 242.288 283.088C242.112 283.429 241.853 283.733 241.512 284C241.176 284.267 240.763 284.48 240.272 284.64C239.781 284.805 239.221 284.888 238.592 284.888C237.968 284.888 237.427 284.827 236.968 284.704C236.509 284.587 236.128 284.427 235.824 284.224C235.525 284.027 235.301 283.797 235.152 283.536C235.003 283.275 234.928 283.003 234.928 282.72C234.928 282.336 235.045 282.013 235.28 281.752C235.515 281.491 235.84 281.283 236.256 281.128C236.053 281.016 235.891 280.867 235.768 280.68C235.645 280.493 235.584 280.251 235.584 279.952C235.584 279.829 235.605 279.704 235.648 279.576C235.691 279.443 235.755 279.312 235.84 279.184C235.931 279.056 236.043 278.936 236.176 278.824C236.309 278.707 236.467 278.603 236.648 278.512C236.232 278.288 235.904 277.989 235.664 277.616C235.429 277.243 235.312 276.805 235.312 276.304C235.312 275.899 235.392 275.533 235.552 275.208C235.717 274.877 235.944 274.597 236.232 274.368C236.525 274.133 236.869 273.955 237.264 273.832C237.664 273.709 238.099 273.648 238.568 273.648ZM240.736 282.368C240.736 282.208 240.688 282.077 240.592 281.976C240.496 281.875 240.365 281.797 240.2 281.744C240.035 281.685 239.84 281.643 239.616 281.616C239.397 281.589 239.163 281.571 238.912 281.56C238.667 281.544 238.411 281.531 238.144 281.52C237.883 281.504 237.629 281.48 237.384 281.448C237.16 281.571 236.979 281.717 236.84 281.888C236.707 282.053 236.64 282.245 236.64 282.464C236.64 282.608 236.675 282.741 236.744 282.864C236.819 282.992 236.933 283.101 237.088 283.192C237.248 283.283 237.453 283.352 237.704 283.4C237.955 283.453 238.261 283.48 238.624 283.48C238.992 283.48 239.309 283.451 239.576 283.392C239.843 283.339 240.061 283.261 240.232 283.16C240.408 283.064 240.536 282.947 240.616 282.808C240.696 282.675 240.736 282.528 240.736 282.368ZM238.568 277.696C238.813 277.696 239.027 277.664 239.208 277.6C239.389 277.531 239.539 277.437 239.656 277.32C239.779 277.203 239.869 277.061 239.928 276.896C239.992 276.731 240.024 276.549 240.024 276.352C240.024 275.947 239.901 275.627 239.656 275.392C239.416 275.152 239.053 275.032 238.568 275.032C238.083 275.032 237.717 275.152 237.472 275.392C237.232 275.627 237.112 275.947 237.112 276.352C237.112 276.544 237.141 276.723 237.2 276.888C237.264 277.053 237.355 277.197 237.472 277.32C237.595 277.437 237.747 277.531 237.928 277.6C238.115 277.664 238.328 277.696 238.568 277.696Z" fill="#B4BBC3"/>
<path d="M247.401 273.664C247.918 273.664 248.393 273.747 248.825 273.912C249.262 274.077 249.638 274.32 249.953 274.64C250.268 274.955 250.513 275.344 250.689 275.808C250.865 276.267 250.953 276.792 250.953 277.384C250.953 277.533 250.945 277.659 250.929 277.76C250.918 277.856 250.894 277.933 250.857 277.992C250.825 278.045 250.78 278.085 250.721 278.112C250.662 278.133 250.588 278.144 250.497 278.144H245.425C245.484 278.987 245.71 279.605 246.105 280C246.5 280.395 247.022 280.592 247.673 280.592C247.993 280.592 248.268 280.555 248.497 280.48C248.732 280.405 248.934 280.323 249.105 280.232C249.281 280.141 249.433 280.059 249.561 279.984C249.694 279.909 249.822 279.872 249.945 279.872C250.025 279.872 250.094 279.888 250.153 279.92C250.212 279.952 250.262 279.997 250.305 280.056L250.881 280.776C250.662 281.032 250.417 281.248 250.145 281.424C249.873 281.595 249.588 281.733 249.289 281.84C248.996 281.941 248.694 282.013 248.385 282.056C248.081 282.099 247.785 282.12 247.497 282.12C246.926 282.12 246.396 282.027 245.905 281.84C245.414 281.648 244.988 281.368 244.625 281C244.262 280.627 243.977 280.168 243.769 279.624C243.561 279.075 243.457 278.44 243.457 277.72C243.457 277.16 243.548 276.635 243.729 276.144C243.91 275.648 244.169 275.219 244.505 274.856C244.846 274.488 245.26 274.197 245.745 273.984C246.236 273.771 246.788 273.664 247.401 273.664ZM247.441 275.08C246.865 275.08 246.414 275.243 246.089 275.568C245.764 275.893 245.556 276.355 245.465 276.952H249.177C249.177 276.696 249.142 276.456 249.073 276.232C249.004 276.003 248.897 275.803 248.753 275.632C248.609 275.461 248.428 275.328 248.209 275.232C247.99 275.131 247.734 275.08 247.441 275.08Z" fill="#B4BBC3"/>
<path fill-rule="evenodd" clip-rule="evenodd" d="M2.10524 0.831607C1.94595 0.606042 1.63395 0.552319 1.40839 0.711614C1.18282 0.870909 1.1291 1.1829 1.2884 1.40847L176.139 249H177.363L2.10524 0.831607ZM214.792 302H213.567L387.712 548.592C387.871 548.817 388.183 548.871 388.408 548.712C388.634 548.552 388.688 548.24 388.528 548.015L214.792 302Z" fill="#CFD3D7"/>
<path fill-rule="evenodd" clip-rule="evenodd" d="M388.528 1.98525C388.688 1.75968 388.634 1.44769 388.408 1.2884C388.183 1.1291 387.871 1.18282 387.712 1.40839L212.861 249H214.085L388.528 1.98525ZM176.657 302H175.432L1.28839 548.591C1.12911 548.817 1.18282 549.129 1.40838 549.288C1.63395 549.448 1.94595 549.394 2.10524 549.168L176.657 302Z" fill="#CFD3D7"/>
</svg>
