<svg xmlns="http://www.w3.org/2000/svg" width="32" height="32" viewBox="0 0 32 32">
  <g fill="none" fill-rule="evenodd">
    <g fill="#344B60" fill-rule="nonzero" transform="translate(12.5 13)">
      <path d="M3,0.491005182 C3,0.219830508 3.23193359,4.21884749e-14 3.5,4.21884749e-14 L3.5,4.21884749e-14 C3.77614237,4.21884749e-14 4,0.227880478 4,0.491005182 L4,5.50899482 C4,5.78016949 3.76806641,6 3.5,6 L3.5,6 C3.22385763,6 3,5.77211952 3,5.50899482 L3,0.491005182 Z" transform="rotate(90 3.5 3)"/>
      <path d="M3.00911128,0.491005182 C3.00911128,0.219830508 3.23681845,0 3.5,0 L3.5,0 C3.77111035,0 3.99088872,0.227880478 3.99088872,0.491005182 L3.99088872,5.50899482 C3.99088872,5.78016949 3.76318155,6 3.5,6 L3.5,6 C3.22888965,6 3.00911128,5.77211952 3.00911128,5.50899482 L3.00911128,0.491005182 Z" transform="rotate(-180 3.5 3)"/>
    </g>
    <path fill="#344B60" fill-rule="nonzero" d="M23,6 C24.6568542,6 26,7.34314575 26,9 L26,23 C26,24.6568542 24.6568542,26 23,26 L9,26 C7.34314575,26 6,24.6568542 6,23 L6,9 C6,7.34314575 7.34314575,6 9,6 L23,6 Z M23,7 L9,7 C7.9456382,7 7.08183488,7.81587779 7.00548574,8.85073766 L7,9 L7,23 C7,24.0543618 7.81587779,24.9181651 8.85073766,24.9945143 L9,25 L23,25 C24.0543618,25 24.9181651,24.1841222 24.9945143,23.1492623 L25,23 L25,9 C25,7.9456382 24.1841222,7.08183488 23.1492623,7.00548574 L23,7 Z"/>
  </g>
</svg>
