<svg width="2687" height="709" xmlns="http://www.w3.org/2000/svg"><defs><radialGradient fx="50%" fy="50%" r="249.987%" gradientTransform="scale(-.63854 -1) rotate(59.841 .727 -1.115)" id="a"><stop stop-color="#D5E5F8" offset="0%"/><stop stop-color="#75AAE9" offset="18.849%"/><stop stop-color="#4A90E2" offset="100%"/></radialGradient><radialGradient fx="50%" fy="50%" r="287.296%" gradientTransform="matrix(-.27914 -.75236 .3188 -.65876 .48 1.206)" id="b"><stop stop-color="#D5E5F8" offset="0%"/><stop stop-color="#75AAE9" offset="18.849%"/><stop stop-color="#4A90E2" offset="100%"/></radialGradient></defs><g fill="none" fill-rule="evenodd" fill-opacity=".4" opacity=".5"><path d="M1247.903 38.462l1436.68 29.79c10.49.217 18.82 8.898 18.602 19.389-.003.139-.008.278-.014.417l-36.939 865.09c-.448 10.483-9.31 18.62-19.793 18.172a19 19 0 0 1-7.448-1.871L1271.978 309.746a19 19 0 0 1-10.561-14.493L1228.69 60.077c-1.446-10.394 5.807-19.991 16.2-21.438a19 19 0 0 1 3.013-.177z" fill="url(#a)" opacity=".4" transform="translate(-9 -263)"/><path d="M23.658 37.49L1740.383.434c10.491-.226 19.18 8.095 19.406 18.586.008.374.005.748-.009 1.122l-26.345 701.905c-.393 10.486-9.213 18.667-19.7 18.274a19 19 0 0 1-4.314-.664L71.621 290.302a19 19 0 0 1-13.43-13.819L5.609 60.99C3.122 50.795 9.37 40.514 19.564 38.026a19 19 0 0 1 4.094-.537z" fill="url(#b)" opacity=".4" transform="matrix(-1 0 0 1 1751.536 -263)"/></g></svg>