<?xml version="1.0" encoding="UTF-8"?>
<svg width="19px" height="20px" viewBox="0 0 19 20" version="1.1" xmlns="http://www.w3.org/2000/svg" xmlns:xlink="http://www.w3.org/1999/xlink">
    <title>Atom / Icon / Copy</title>
    <g id="Scene-menu" stroke="none" stroke-width="1" fill="none" fill-rule="evenodd">
        <g id="Scene-reorder-place" transform="translate(-715.000000, -202.000000)" fill="#344B60" fill-rule="nonzero">
            <g id="Scene-menu-/-inner" transform="translate(472.000000, 191.000000)">
                <g id="Artboard-1-copy" transform="translate(232.000000, 0.000000)">
                    <g transform="translate(21.000000, 21.000000) scale(1, -1) translate(-21.000000, -21.000000) translate(11.000000, 11.000000)">
                        <path d="M13.6842105,5.27131733 L13.6842105,3.16448232 C13.6842105,1.26613437 12.0999562,-2.13013233e-11 10.5263158,-2.13013233e-11 L3.16448507,-2.13013233e-11 C1.56021666,-2.13013233e-11 -1.91472569e-12,1.2922257 -1.91472569e-12,3.16448232 L-1.91472569e-12,11.5903682 C-1.91472569e-12,13.4097359 1.54073904,14.7368421 3.16448507,14.7368421 L5.26701275,14.7368421 L5.26701275,16.8402581 C5.26701275,18.7700016 6.88923645,20 8.42105263,20 L15.7860919,20 C17.3607867,20 18.9473684,18.7526338 18.9473684,16.8402581 C18.9548659,12.2683696 18.9586147,9.46468929 18.9586147,8.42921734 C18.9586147,6.87600941 17.7246815,5.26315789 15.7860919,5.26315789 L13.6842105,5.27131733 Z M3.15492329,13.6842105 C1.89888402,13.6842105 1.05139481,12.6500341 1.05139481,11.5772609 L1.05139481,3.15567855 C1.05139481,1.95058722 2.03947513,1.05135163 3.15492329,1.05135163 L10.5263158,1.05135163 C11.8310386,1.05135163 12.634454,2.12587055 12.634454,3.15567855 L12.634454,5.26315789 L8.42105263,5.26315789 C6.66070235,5.26315789 5.26315789,6.69695402 5.26315789,8.42545359 C5.26315789,9.57778663 5.26315789,11.3307056 5.26315789,13.6842105 L3.15492329,13.6842105 Z M17.8977939,16.8419723 C17.8977939,17.881396 17.1007277,18.9589557 15.7893965,18.9589557 L8.42073139,18.9589557 C7.36125459,18.9589557 6.31578947,18.0780745 6.31578947,16.8419723 C6.31578947,12.0830884 6.31578947,9.279594 6.31578947,8.43148921 C6.31578947,7.15933202 7.35123599,6.31578947 8.42073139,6.31578947 C9.13372833,6.31578947 11.58995,6.31578947 15.7893965,6.31578947 C16.795633,6.31578947 17.8977939,7.10788151 17.8977939,8.43148921 C17.8977939,9.31389434 17.8977939,12.1173887 17.8977939,16.8419723 Z M12.1294768,9.47368421 C12.4014833,9.47368421 12.6219881,9.6984665 12.6219881,9.96927362 L12.6210526,12.1046842 L14.7675685,12.1052632 C15.041275,12.1052632 15.2631579,12.3284992 15.2631579,12.6069159 L15.2631579,12.656242 C15.2631579,12.9332971 15.0383756,13.1578947 14.7675685,13.1578947 L12.6210526,13.1576842 L12.6219881,15.2938843 C12.6219881,15.5675907 12.40282,15.7894737 12.1294768,15.7894737 L12.0810496,15.7894737 C11.809043,15.7894737 11.5885382,15.5646914 11.5885382,15.2938843 L11.5880526,13.1576842 L9.44295783,13.1578947 C9.16925136,13.1578947 8.94736842,12.9346587 8.94736842,12.656242 L8.94736842,12.6069159 C8.94736842,12.3298608 9.17215071,12.1052632 9.44295783,12.1052632 L11.5880526,12.1046842 L11.5885382,9.96927362 C11.5885382,9.69556715 11.8077063,9.47368421 12.0810496,9.47368421 L12.1294768,9.47368421 Z" id="Shape"></path>
                    </g>
                </g>
            </g>
        </g>
    </g>
</svg>