<?xml version="1.0" encoding="UTF-8"?>
<svg width="106px" height="72px" viewBox="0 0 106 72" version="1.1" xmlns="http://www.w3.org/2000/svg" xmlns:xlink="http://www.w3.org/1999/xlink">
    <title>Illustration / Picture</title>
    <defs>
        <rect id="path-1" x="0" y="0" width="106" height="72"></rect>
    </defs>
    <g id="Inspect-menu-/-Image" stroke="none" stroke-width="1" fill="none" fill-rule="evenodd">
        <g id="Illustration-/-picture">
            <mask id="mask-2" fill="white">
                <use xlink:href="#path-1"></use>
            </mask>
            <use id="Mask" fill="#FFFFFF" xlink:href="#path-1"></use>
            <g id="Group-56" mask="url(#mask-2)">
                <g transform="translate(-1.000000, 0.000000)" id="Group-51">
                    <g id="Group-52" transform="translate(0.692705, 0.000000)" fill-rule="nonzero">
                        <path d="M0.307295423,0 L107.307295,0 L107.302206,41.7417413 C101.924032,35.7623102 90.399601,27.969376 74.4709526,27.969376 C59.0734882,27.969376 44.9064149,35.5610816 38.0113905,46.8473589 C34.3338415,45.122356 28.532927,43.2285126 21.3120666,43.2285126 C14.0912062,43.2285126 6.23231429,45.3824973 0.307295423,49 C0.307295423,49 0.307295423,32.6666667 0.307295423,0 Z" id="Path" fill="#D5E7FD"></path>
                        <path d="M50.3072954,72 L0.307295423,72 L0.307295423,56.2291186 C4.57852754,52.6303842 11.6438503,49 21.1406638,49 C25.1011737,49 30.7565577,49.8750693 35.6861187,52.3201726 C42.1638667,55.5331896 49.014426,62.1768301 50.3072954,72 Z" id="Path" fill="#96BFEF"></path>
                        <path d="M107.307295,51.5713905 L107.307295,72 L56.962466,72 C55.5695802,57.7645867 44.2410969,50.4203042 43.3072954,49.8107624 C50.7315069,37.51445 64.1583182,33 74.6596751,33 C85.7605513,33 100.273457,38.0616131 107.307295,51.5713905 Z" id="Path" fill="#AFD4FF"></path>
                    </g>
                    <path d="M23.1904958,7.67851862 C15.8727229,7.67851862 9.94049579,13.4063622 9.94049579,20.4720152 C9.94049579,27.5376683 15.8727229,33.2655119 23.1904958,33.2655119 C30.5082687,33.2655119 36.4404958,27.5376683 36.4404958,20.4720152 C36.4404958,13.4063622 30.5082687,7.67851862 23.1904958,7.67851862 Z" id="Path" fill="#E8F0FA" fill-rule="nonzero"></path>
                    <path d="M23.1904958,12.7959173 C27.5811595,12.7959173 31.1404958,16.2326234 31.1404958,20.4720152 C31.1404958,24.7114071 27.5811595,28.1481132 23.1904958,28.1481132 C18.799832,28.1481132 15.2404958,24.7114071 15.2404958,20.4720152 C15.2404958,16.2326234 18.799832,12.7959173 23.1904958,12.7959173 Z" id="Path" fill="#FFFFFF" fill-rule="nonzero"></path>
                </g>
            </g>
        </g>
    </g>
</svg>