{"accessors" : [{"bufferView" : 0, "byteOffset" : 0, "componentType" : 5123, "count" : 53052, "type" : "SCALAR", "max" : [44217], "min" : [0]}, {"bufferView" : 1, "byteOffset" : 0, "componentType" : 5126, "count" : 44218, "type" : "VEC3", "max" : [4.276320934295654, 3.9725468158721924, 2.5903584957122803], "min" : [-4.276320934295654, -3.9725465774536133, -2.5903775691986084], "name" : "POSITION"}, {"bufferView" : 1, "byteOffset" : 12, "componentType" : 5126, "count" : 44218, "type" : "VEC3", "max" : [0.9999138116836548, 0.999414324760437, 0.9997955560684204], "min" : [-0.9996124505996704, -0.9998645782470703, -0.9999481439590454], "name" : "NORMAL"}, {"bufferView" : 1, "byteOffset" : 24, "componentType" : 5126, "count" : 44218, "type" : "VEC2", "max" : [0.9949300289154053, 0.9975799918174744], "min" : [0.005049999803304672, 0.009069979190826416], "name" : "TEXCOORD_0"}], "asset" : {"generator" : "Aspose.3D 23.7.0", "version" : "2.0"}, "buffers" : [{"uri" : "data:application/octet-stream;base64,", "byteLength" : 1803776}], "bufferViews" : [{"buffer" : 0, "byteOffset" : 0, "byteLength" : 106104, "target" : 34963}, {"buffer" : 0, "byteOffset" : 106108, "byteLength" : 1697664, "byteStride" : 32, "target" : 34962}], "materials" : [{"name" : "Material.002", "pbrMetallicRoughness" : {"baseColorFactor" : [0.665386974811554, 0.6653873324394226, 0.8227859139442444, 1], "metallicFactor" : 0, "roughnessFactor" : 1}, "emissiveFactor" : [0, 0, 0], "alphaMode" : "OPAQUE", "doubleSided" : false}], "meshes" : [{"primitives" : [{"attributes" : {"POSITION" : 1, "NORMAL" : 2, "TEXCOORD_0" : 3}, "indices" : 0, "material" : 0, "mode" : 4}]}], "nodes" : [{"matrix" : [1, 0, 0, 0, 0, 1.0000001192092896, 0, 0, 0, 0, 1.0000001192092896, 0, 0, 0, 0, 1], "mesh" : 0, "name" : "LeePerrySmith"}], "scene" : 0, "scenes" : [{"nodes" : [0]}]}